# xmcd
#
# Track frame offsets:
#	150
#	16918
#	39503
#	55143
#	73341
#	91792
#	112325
#	129912
#	147473
#	165768
#	184076
#	203358
#	221753
#	237867
#	259456
#	279371
#	295980
#
# Disc length: 4246 seconds
#
# Revision: 1
# Processed by: cddbd v1.5.2PL0 Copyright (c) Steve Scherf et al.
# Submitted via: audiograbber 1.83.01
#
DISCID=fa109411
DTITLE=Various Artist - CKC043
DYEAR=1900
DGENRE=Country
TTITLE0=Ti McGraw and Faith Hill - It's Your Love
TTITLE1=Kid Rock and Sheryl Crow - Picture
TTITLE2=Toby Keith and Willie Nelson - Beer for My Horses
TTITLE3=Clint Black and Wynonna - A Bad Goodbye
TTITLE4=Kenny Rogers and Sheena Easton - We've Got Tonight
TTITLE5=Willie Nelson and Lee Ann Womack - Mendocino County Line
TTITLE6=Brooks and Dunn and Reba McEntire - If You See Him/If You See Her
TTITLE7=Willie Nelson and Julio Iglesias - To All the Girls I've Loved Before
TTITLE8=Alan Jackson and Jimmy Buffet - Five O'Clock Somewhere
TTITLE9=Brad Paisley and Alison Krauss - Whiskey Lullaby
TTITLE10=Tim McGraw and Faith HIll - Let's Make Love
TTITLE11=Eddie Rabbitt and Crystal Gayle - You and I
TTITLE12=Jimmy Buffet and Martina McBride - Trip Around the Sun
TTITLE13=Steve Wariner and Anita Cochran - What If I Said
TTITLE14=Kenny Rogers and Dolly Parton - Islands in the Stream
TTITLE15=Kenny Chesney and Uncle Kracker - When the Sun Goes Down
TTITLE16=Shania Twain and Brian White - From This Moment On
EXTD=
EXTT0=
EXTT1=
EXTT2=
EXTT3=
EXTT4=
EXTT5=
EXTT6=
EXTT7=
EXTT8=
EXTT9=
EXTT10=
EXTT11=
EXTT12=
EXTT13=
EXTT14=
EXTT15=
EXTT16=
PLAYORDER=
